<svg xmlns="http://www.w3.org/2000/svg" viewBox="0 0 128 128" width="128" height="128">
  <rect width="128" height="128" rx="16" fill="#2D2D2D"/>
  <g transform="translate(54,64)">
    <!-- Sound waves -->
    <path d="M-8,-24 Q-8,-32 0,-32 Q8,-32 8,-24 L8,24 Q8,32 0,32 Q-8,32 -8,24 Z" fill="#00BFFF"/>
    <path d="M20,-16 A24,24 0 0,1 20,16" stroke="#00BFFF" stroke-width="4" fill="none" stroke-linecap="round"/>
    <path d="M28,-24 A36,36 0 0,1 28,24" stroke="#00BFFF" stroke-width="4" fill="none" stroke-linecap="round" opacity="0.7"/>
    <path d="M36,-32 A48,48 0 0,1 36,32" stroke="#00BFFF" stroke-width="4" fill="none" stroke-linecap="round" opacity="0.4"/>
    <!-- Microphone base -->
    <path d="M-12,28 L12,28 M0,32 L0,40 M-16,40 L16,40" stroke="#00BFFF" stroke-width="3" fill="none" stroke-linecap="round"/>
  </g>
</svg>
